<svg width="126" height="31" viewBox="0 0 126 31" fill="none" xmlns="http://www.w3.org/2000/svg">
<g clip-path="url(#clip0_2_2)">
<path fill-rule="evenodd" clip-rule="evenodd" d="M1.11002 22.5034L5.55115 19.1017C7.90952 22.1807 10.414 23.5996 13.2048 23.5996C15.9802 23.5996 18.4159 22.1971 20.6686 19.1424L25.1709 22.4627C21.9229 26.8669 17.882 29.1938 13.2048 29.1938C8.54315 29.1938 4.46481 26.8833 1.11002 22.5034Z" fill="url(#paint0_linear_2_2)"/>
<path fill-rule="evenodd" clip-rule="evenodd" d="M13.1906 7.71907L5.28612 14.5303L1.6344 10.2924L13.2063 0.320984L24.6883 10.3001L21.0186 14.5225L13.1906 7.71907Z" fill="url(#paint1_linear_2_2)"/>
<path d="M55.4864 6.07123H51.0111V24.7185H55.4864V6.07123Z" fill="black"/>
<path fill-rule="evenodd" clip-rule="evenodd" d="M41.9665 24.8007C39.3282 24.8007 37.1297 23.9458 35.3465 22.2358C33.5632 20.5014 32.6838 18.2785 32.6838 15.5669C32.6838 12.831 33.5877 10.5836 35.3709 8.82483C37.1786 7.04156 39.3771 6.16217 41.9909 6.16217C45.2153 6.16217 48.0735 7.55455 49.7344 9.72866L46.8275 12.7822C45.4351 11.292 43.9207 10.5348 42.284 10.5348C40.8916 10.5348 39.7435 10.9989 38.7908 11.9516C37.8626 12.9043 37.3984 14.1013 37.3984 15.5425C37.3984 16.9349 37.8626 18.1074 38.7908 19.0601C39.7435 19.9884 40.8916 20.4525 42.2596 20.4525C44.0428 20.4525 45.6062 19.6708 46.9008 18.1319L49.9301 21.0388C49.0996 22.138 47.9756 23.0419 46.5832 23.7503C45.1912 24.4587 43.652 24.8007 41.9665 24.8007Z" fill="black"/>
<path fill-rule="evenodd" clip-rule="evenodd" d="M62.199 7.56299C62.199 8.90184 61.1141 9.98717 59.7752 9.98717C58.4362 9.98717 57.3509 8.90184 57.3509 7.56299C57.3509 6.22418 58.4362 5.13885 59.7752 5.13885C61.1141 5.13885 62.199 6.22418 62.199 7.56299ZM62.0126 11.106H57.5373V24.7185H62.0126V11.106Z" fill="black"/>
<path fill-rule="evenodd" clip-rule="evenodd" d="M70.6635 24.8251C68.5384 24.8251 66.8283 24.1655 65.485 22.8464C64.1658 21.5273 63.506 19.8418 63.506 17.7654C63.506 15.6891 64.1658 14.0035 65.5091 12.6844C66.8529 11.3653 68.5871 10.7057 70.7368 10.7057C73.5463 10.7057 76.0132 12.0737 77.1613 14.6386L73.717 16.4463C73.033 15.2982 72.0806 14.7119 70.8346 14.7119C69.9309 14.7119 69.1978 15.0051 68.6117 15.5913C68.0497 16.1776 67.7566 16.9104 67.7566 17.7654C67.7566 19.5486 69.0513 20.8678 70.7859 20.8678C72.0314 20.8678 73.1795 20.1838 73.6683 19.1334L77.1126 21.1853C75.9399 23.4327 73.5217 24.8251 70.6635 24.8251Z" fill="black"/>
<path fill-rule="evenodd" clip-rule="evenodd" d="M82.7118 6.07123H78.2365V24.7185H82.7118V19.9714L83.2361 19.4824L87.327 24.7185H92.5332L86.2478 16.6738L92.2187 11.1059H86.7501L82.7118 14.872V6.07123Z" fill="black"/>
<path fill-rule="evenodd" clip-rule="evenodd" d="M93.3404 17.6721V6.07123H98.0026V17.4123C98.0026 19.4399 99.184 20.4169 100.893 20.4169C102.577 20.4169 103.783 19.391 103.783 17.4123V6.07123H108.445V17.6721C108.445 22.9973 104.706 25.0005 100.893 25.0005C97.1041 25.0005 93.3404 22.9973 93.3404 17.6721Z" fill="black"/>
<path fill-rule="evenodd" clip-rule="evenodd" d="M118.515 25.0914C122.119 25.0914 125.041 21.919 125.041 18.0054C125.041 14.092 122.119 10.9195 118.515 10.9195C117.045 10.9195 115.69 11.4466 114.599 12.3361V11.106H110.31V30.3127H114.599V23.6748C115.69 24.5643 117.045 25.0914 118.515 25.0914ZM114.599 18.0127V17.9982C114.603 16.2507 115.978 14.8354 117.675 14.8354C119.375 14.8354 120.752 16.2547 120.752 18.0054C120.752 19.7562 119.375 21.1755 117.675 21.1755C115.978 21.1755 114.603 19.7602 114.599 18.0127Z" fill="black"/>
</g>
<defs>
<linearGradient id="paint0_linear_2_2" x1="1.11002" y1="31.011" x2="25.1709" y2="31.011" gradientUnits="userSpaceOnUse">
<stop stop-color="#8930FD"/>
<stop offset="1" stop-color="#49CCF9"/>
</linearGradient>
<linearGradient id="paint1_linear_2_2" x1="1.6344" y1="17.0888" x2="24.6883" y2="17.0888" gradientUnits="userSpaceOnUse">
<stop stop-color="#FF02F0"/>
<stop offset="1" stop-color="#FFC800"/>
</linearGradient>
<clipPath id="clip0_2_2">
<rect width="124.594" height="30.271" fill="white" transform="translate(0.761292 0.180664)"/>
</clipPath>
</defs>
</svg>
