<svg width="100" height="29" viewBox="0 0 100 29" fill="none" xmlns="http://www.w3.org/2000/svg">
<path d="M21.6529 5.25897C21.6332 5.12095 21.5149 5.04209 21.4163 5.04209C21.3177 5.04209 19.3658 5.00266 19.3658 5.00266C19.3658 5.00266 17.7293 3.42534 17.5716 3.24789C17.4139 3.09016 17.0984 3.12959 16.9801 3.16902C16.9801 3.16902 16.6646 3.26761 16.152 3.42534C16.0732 3.14931 15.9351 2.81413 15.7577 2.45923C15.1859 1.35511 14.3184 0.763612 13.2931 0.763612C13.2143 0.763612 13.1551 0.763612 13.0763 0.783328C13.0368 0.743895 13.0171 0.704462 12.9777 0.684746C12.5242 0.21155 11.9524 -0.0250476 11.2623 -0.00533111C9.94133 0.0341019 8.62032 1.00021 7.53592 2.69583C6.78669 3.89853 6.21491 5.39699 6.03747 6.56026C4.5193 7.03345 3.45461 7.36863 3.41517 7.36863C2.64623 7.60523 2.62651 7.62495 2.52793 8.35446C2.4885 8.90652 0.477417 24.4628 0.477417 24.4628L17.3547 27.3809L24.6695 25.5669C24.6498 25.5669 21.6726 5.39699 21.6529 5.25897ZM15.3042 3.70137C14.9099 3.81967 14.4761 3.95768 14.0029 4.11541C14.0029 3.44505 13.9043 2.49866 13.6086 1.71C14.6141 1.86773 15.107 3.01129 15.3042 3.70137ZM13.1157 4.37173C12.2284 4.64776 11.2623 4.94351 10.2962 5.23925C10.5723 4.19428 11.0849 3.16902 11.7158 2.47895C11.9524 2.22263 12.2876 1.9466 12.6622 1.78887C13.0565 2.55781 13.1354 3.64222 13.1157 4.37173ZM11.3018 0.881911C11.6172 0.881911 11.8735 0.94106 12.0904 1.09879C11.7355 1.27624 11.3806 1.55227 11.0652 1.90717C10.2174 2.81413 9.56672 4.214 9.3104 5.57443C8.50203 5.83075 7.71337 6.06735 7.00357 6.28423C7.47677 4.13513 9.27097 0.94106 11.3018 0.881911Z" fill="#95BF47"/>
<path d="M21.4163 5.04207C21.3177 5.04207 19.3658 5.00264 19.3658 5.00264C19.3658 5.00264 17.7293 3.42532 17.5716 3.24787C17.5125 3.18872 17.4336 3.14929 17.3547 3.14929V27.3809L24.6696 25.5669C24.6696 25.5669 21.6924 5.39697 21.6726 5.25896C21.6332 5.12094 21.5149 5.04207 21.4163 5.04207Z" fill="#5E8E3E"/>
<path d="M13.2931 8.80794L12.4453 11.9823C12.4453 11.9823 11.4989 11.5485 10.3751 11.6274C8.71891 11.726 8.71891 12.771 8.71891 13.0273C8.81749 14.4469 12.5439 14.7623 12.7608 18.0944C12.9185 20.7167 11.3806 22.5109 9.13296 22.6489C6.45151 22.7869 4.97278 21.2096 4.97278 21.2096L5.54456 18.7845C5.54456 18.7845 7.04301 19.9083 8.226 19.8295C8.99494 19.79 9.29069 19.1394 9.25126 18.7056C9.13296 16.8523 6.09662 16.9706 5.89945 13.9145C5.74172 11.3514 7.41762 8.76851 11.1243 8.53191C12.5636 8.43333 13.2931 8.80794 13.2931 8.80794Z" fill="white"/>
<path d="M34.5672 15.5708C33.7194 15.1173 33.2857 14.723 33.2857 14.1906C33.2857 13.5203 33.8969 13.0865 34.8433 13.0865C35.9474 13.0865 36.9332 13.54 36.9332 13.54L37.7022 11.174C37.7022 11.174 36.9924 10.6219 34.9024 10.6219C31.9844 10.6219 29.9536 12.2978 29.9536 14.6441C29.9536 15.9848 30.9 16.9904 32.1618 17.7199C33.1871 18.2917 33.542 18.7057 33.542 19.3169C33.542 19.9478 33.0294 20.4605 32.083 20.4605C30.6831 20.4605 29.3424 19.731 29.3424 19.731L28.5143 22.0969C28.5143 22.0969 29.7367 22.925 31.8069 22.925C34.8038 22.925 36.9727 21.4463 36.9727 18.7846C36.9529 17.3453 35.8685 16.32 34.5672 15.5708Z" fill="black"/>
<path d="M46.5154 10.5825C45.0366 10.5825 43.8734 11.2923 42.9861 12.357L42.9467 12.3373L44.2282 5.63367H40.8962L37.6429 22.7081H40.975L42.0792 16.8721C42.5129 14.6638 43.6565 13.3034 44.7212 13.3034C45.4704 13.3034 45.7661 13.816 45.7661 14.5455C45.7661 14.999 45.7267 15.5708 45.6281 16.0243L44.3663 22.7081H47.6984L48.9996 15.8074C49.1377 15.0779 49.2362 14.2103 49.2362 13.6188C49.256 11.7261 48.2701 10.5825 46.5154 10.5825Z" fill="black"/>
<path d="M56.8075 10.5825C52.7854 10.5825 50.1237 14.2104 50.1237 18.2522C50.1237 20.8351 51.7207 22.925 54.7176 22.925C58.6609 22.925 61.3226 19.3958 61.3226 15.2553C61.3423 12.8696 59.9425 10.5825 56.8075 10.5825ZM55.1711 20.3816C54.0275 20.3816 53.5543 19.4155 53.5543 18.1931C53.5543 16.2806 54.5401 13.1654 56.3541 13.1654C57.5371 13.1654 57.9314 14.1906 57.9314 15.1765C57.9314 17.227 56.9258 20.3816 55.1711 20.3816Z" fill="black"/>
<path d="M69.8795 10.5825C67.6318 10.5825 66.3502 12.5739 66.3502 12.5739H66.3108L66.508 10.7797H63.5505C63.4125 11.9824 63.1364 13.8357 62.8801 15.2159L60.5536 27.4401H63.8857L64.8123 22.4913H64.8912C64.8912 22.4913 65.5813 22.925 66.8431 22.925C70.7667 22.925 73.3299 18.9029 73.3299 14.8413C73.3299 12.5936 72.3243 10.5825 69.8795 10.5825ZM66.6854 20.421C65.8179 20.421 65.3053 19.9281 65.3053 19.9281L65.8573 16.8129C66.2517 14.723 67.3361 13.3428 68.4993 13.3428C69.5246 13.3428 69.84 14.2892 69.84 15.1765C69.84 17.3453 68.5585 20.421 66.6854 20.421Z" fill="black"/>
<path d="M78.1012 5.7915C77.0365 5.7915 76.1887 6.63931 76.1887 7.72372C76.1887 8.70954 76.8196 9.39962 77.766 9.39962H77.8055C78.8504 9.39962 79.7377 8.68983 79.7574 7.4674C79.7574 6.5013 79.1068 5.7915 78.1012 5.7915Z" fill="black"/>
<path d="M73.4283 22.6883H76.7604L79.0278 10.8584H75.676L73.4283 22.6883Z" fill="black"/>
<path d="M87.5258 10.8387H85.1992L85.3175 10.2867C85.5147 9.1431 86.185 8.13756 87.3089 8.13756C87.9004 8.13756 88.3736 8.31501 88.3736 8.31501L89.0242 5.69272C89.0242 5.69272 88.4524 5.39697 87.2103 5.39697C86.0273 5.39697 84.8443 5.73215 83.9374 6.5011C82.7938 7.4672 82.2615 8.86707 82.0051 10.2867L81.9066 10.8387H80.349L79.856 13.3624H81.4136L79.6392 22.708H82.9712L84.7457 13.3624H87.0526L87.5258 10.8387Z" fill="black"/>
<path d="M95.57 10.8584C95.57 10.8584 93.4801 16.1227 92.5534 19.0013H92.514C92.4548 18.0746 91.6859 10.8584 91.6859 10.8584H88.1763L90.1874 21.7222C90.2269 21.9588 90.2071 22.1165 90.1086 22.2742C89.7142 23.0235 89.0636 23.753 88.2946 24.2853C87.6637 24.7388 86.9539 25.0345 86.4019 25.2317L87.3285 28.0709C87.9989 27.9329 89.4185 27.3611 90.6015 26.257C92.1196 24.8374 93.5392 22.6291 94.9785 19.6322L99.0598 10.8584H95.57Z" fill="black"/>
</svg>
