<svg width="178" height="36" viewBox="0 0 178 36" fill="none" xmlns="http://www.w3.org/2000/svg">
<path fill-rule="evenodd" clip-rule="evenodd" d="M48.9937 6.55288C50.3024 6.2948 51.6295 6.2948 52.9197 6.55288L52.9752 6.57137V28.1931L52.9197 28.2116C51.611 28.4697 50.3024 28.4697 48.9937 28.2116L48.9382 28.1931V19.4189H40.0352V28.1931L39.9799 28.2116C39.3164 28.3406 38.6712 28.4142 38.0076 28.4142C37.3439 28.4142 36.6989 28.3406 36.0537 28.2116L35.9984 28.1931V6.57116L36.0537 6.55267C37.3441 6.2763 38.6712 6.2763 39.9799 6.55267L40.0352 6.57116V15.9718H48.9382V6.57137L48.9937 6.55288ZM62.8365 12.6358C65.1222 12.6358 67.0025 13.373 68.2374 14.7372C69.6384 16.3039 70.2098 18.6264 69.8965 21.4835V21.5571H59.0579C59.0948 24.4697 60.3667 25.8706 62.9288 25.8706C64.7719 25.8706 66.0255 24.9673 66.2836 23.4559V23.4006H66.3389C67.537 23.2346 68.5508 23.3083 69.6384 23.677L69.6936 23.6954V23.7507C69.4171 26.2947 67.2053 28.8566 62.892 28.8566C60.3667 28.8566 58.4312 28.064 57.1593 26.5343C55.9796 25.1149 55.3897 23.1055 55.3897 20.525C55.3897 15.5849 58.1731 12.6358 62.8365 12.6358ZM62.763 15.4376C60.4773 15.4376 59.1316 16.8385 59.0211 19.2899H66.2283C66.2836 18.0919 65.9887 17.0964 65.3435 16.4144C64.7351 15.7692 63.8504 15.4376 62.7628 15.4376H62.763ZM72.5508 6.55288C73.7674 6.27651 75.0208 6.27651 76.2372 6.55288L76.2927 6.57137V28.1931L76.2372 28.2116C75.629 28.3406 75.0023 28.4142 74.3941 28.4142C73.7859 28.4142 73.159 28.3406 72.5508 28.2116L72.4955 28.1931V6.57116L72.5508 6.55288ZM86.9468 12.6358C91.3706 12.6358 93.8959 15.6034 93.8959 20.7648C93.8959 25.8153 91.3521 28.8383 87.0943 28.8383C85.5643 28.8383 84.2004 28.4327 82.91 27.6217V34.8289L82.8547 34.8474C82.2463 34.9764 81.6196 35.05 81.0114 35.05C80.4032 35.05 79.7763 34.9764 79.1683 34.8474L79.1128 34.8289V13.3177L79.1681 13.2994C80.0714 13.0229 80.8271 13.0229 81.7489 13.2994L81.7856 13.3177L82.0067 14.4606C83.6103 13.2627 85.3247 12.6358 86.9468 12.6358ZM82.8547 16.8936V24.617C83.9423 25.3729 85.0114 25.7414 86.1358 25.7414C88.7716 25.7414 90.1725 24.0273 90.1725 20.82C90.1725 17.5388 88.7531 15.751 86.1725 15.751C85.0482 15.751 83.9974 16.1196 82.8547 16.8938V16.8936ZM110.117 16.5435C113.121 17.7048 116.237 18.9029 116.255 22.5341C116.218 28.0088 111.057 28.8383 107.923 28.8383C104.735 28.8383 102.246 28.0088 100.735 26.3865C99.6102 25.1886 99.0755 23.6402 99.1861 21.8891V21.8338L99.2414 21.8154C100.532 21.5203 101.859 21.502 103.168 21.7601L103.223 21.7784V21.8338C103.112 22.8107 103.352 23.6034 103.923 24.2301C104.698 25.0779 106.062 25.5388 107.85 25.5388C109.472 25.5388 110.688 25.1884 111.389 24.4697C111.868 23.972 112.107 23.3268 112.089 22.5158C112.052 20.9491 110.301 20.3591 107.389 19.3453C106.799 19.1425 106.117 18.9029 105.416 18.6449L105.085 18.5343C102.946 17.7601 99.3521 16.4697 99.3889 12.5805C99.4442 8.67276 102.596 6.33179 107.831 6.33179H107.924C110.743 6.35028 112.974 7.1243 114.357 8.599C115.481 9.77863 116.034 11.3639 115.942 13.1704V13.2257L115.886 13.244C114.485 13.5573 113.195 13.5943 111.923 13.3362L111.868 13.3177V13.2627C111.942 12.1936 111.684 11.3271 111.094 10.7006C110.412 9.94486 109.251 9.55775 107.757 9.55775C106.246 9.55775 104.992 9.96336 104.274 10.7189C103.776 11.2168 103.536 11.8617 103.555 12.5992C103.61 14.1844 105.38 14.8294 108.31 15.8802C108.882 16.083 109.472 16.3041 110.117 16.5437V16.5435ZM125.711 15.751C123.057 15.751 121.822 17.3362 121.822 20.7278C121.822 24.1193 123.057 25.7046 125.711 25.7046C126.393 25.7046 128.679 25.5386 129.029 23.1793V23.124H129.084C130.301 22.9029 131.444 22.9765 132.476 23.3268L132.531 23.3453V23.4006C132.402 24.8015 131.775 26.1102 130.743 27.0687C129.508 28.2299 127.739 28.8383 125.637 28.8383C120.771 28.8383 118.08 25.9627 118.08 20.7463C118.08 15.5112 120.789 12.6173 125.711 12.6173C127.775 12.6173 129.527 13.2072 130.743 14.3315C131.812 15.3086 132.457 16.691 132.568 18.2025V18.2578L132.513 18.2762C131.425 18.5894 130.282 18.6634 129.084 18.4791H129.029V18.4236C128.9 17.4283 128.31 15.751 125.711 15.751ZM141.895 12.6358C146.743 12.6358 149.397 15.5114 149.397 20.7648C149.397 25.9809 146.743 28.8566 141.895 28.8566C137.066 28.8566 134.393 25.9811 134.393 20.7645C134.393 15.5297 137.047 12.6358 141.895 12.6358ZM145.747 20.7463C145.747 17.3915 144.494 15.7508 141.895 15.7508C139.259 15.7508 138.042 17.3362 138.042 20.7463C138.042 24.1011 139.296 25.7231 141.895 25.7231C144.494 25.7231 145.747 24.0826 145.747 20.7463ZM161.526 13.3177C162.761 13.0046 163.996 13.0046 165.213 13.3177L165.268 13.3362V28.1931L165.213 28.2116C164.328 28.4512 163.406 28.4512 162.521 28.2116L162.484 28.1931L162.116 26.4971C160.383 28.1008 158.779 28.8198 156.918 28.8198C153.471 28.8198 151.48 26.7184 151.48 23.032V13.3362L151.535 13.3177C152.752 13.0229 154.005 13.0229 155.222 13.3177L155.277 13.3362V22.184C155.277 24.617 156.051 25.6495 157.858 25.6495C159.148 25.6495 160.254 25.1701 161.47 24.1195V13.3362L161.526 13.3177ZM176.88 25.299C177.157 26.3498 177.157 27.3636 176.862 28.3406L176.843 28.3774H176.807C175.756 28.5802 174.834 28.6907 174.023 28.6907C172.715 28.6907 171.719 28.4142 171.019 27.8427C169.729 26.7737 169.618 24.8936 169.618 23.0503L169.581 16.4329H167.682L167.664 16.3777C167.425 15.3454 167.425 14.3133 167.664 13.2994L167.682 13.244H169.581L169.544 9.15214L169.599 9.13344C170.816 8.85707 172.069 8.85707 173.286 9.13344L173.341 9.15193V13.244H176.346L176.364 13.2994C176.567 14.3133 176.567 15.3454 176.364 16.3594L176.346 16.4144H173.342V23.3083C173.342 24.2301 173.544 24.8198 173.95 25.1516C174.466 25.5573 175.314 25.594 176.788 25.2439L176.862 25.2254L176.88 25.299Z" fill="#213743"/>
<path fill-rule="evenodd" clip-rule="evenodd" d="M12.5849 10.412L2.45475 20.7597C1.18874 19.4662 0.397276 17.6878 0.238815 15.5858C0.238815 13.6458 1.18853 11.7056 2.45475 10.412L12.7434 0.0645752C14.0096 1.35811 14.8008 3.2981 14.8008 5.2383C14.8008 7.1785 13.8513 9.1187 12.5851 10.412H12.5849ZM17.0411 24.7395L27.2822 14.3918C28.5625 15.847 29.3628 17.6256 29.3628 19.5656C29.3628 21.5058 28.4024 23.446 27.1225 24.7395L16.881 35.087C15.6009 33.7934 14.8008 31.8532 14.8008 29.9132C14.8008 27.973 15.7608 26.0328 17.0411 24.7395ZM16.79 10.412L19.8138 7.3874L27.2938 0.0645752C28.567 1.33815 29.3626 3.2485 29.3626 5.15886C29.3626 7.06922 28.4079 8.97937 27.1345 10.2529L19.8138 17.5758L16.79 20.6004L12.4933 24.8986L9.46948 27.9232L2.30784 35.087C1.03448 33.8134 0.238815 31.903 0.238815 29.9927C0.238815 28.0823 1.19378 26.172 2.46694 24.8986L9.62857 17.7349L12.4931 14.7102L16.79 10.412Z" fill="#1292EE"/>
</svg>
