<svg width="108" height="36" viewBox="0 0 108 36" fill="none" xmlns="http://www.w3.org/2000/svg">
<path d="M13.9048 16.7258V12.9557H26.3806C26.5236 13.7242 26.5925 14.5046 26.5862 15.2863C26.5862 18.0282 25.8322 21.5242 23.3644 23.9234C20.9652 26.4597 17.9491 27.7621 13.8362 27.7621C6.36443 27.7621 0.0579834 21.6613 0.0579834 14.1895C0.0579834 6.71776 6.36443 0.548401 13.8362 0.548401C18.0177 0.548401 20.9652 2.19356 23.2273 4.31856L20.5539 6.9234C19.1614 5.59441 17.4061 4.70814 15.5099 4.37665C13.6137 4.04515 11.6618 4.28331 9.90099 5.06101C8.14014 5.83872 6.64942 7.12105 5.61729 8.74588C4.58515 10.3707 4.05795 12.2651 4.10234 14.1895C4.10234 19.6734 8.42089 24.0605 13.8362 24.0605C17.4007 24.0605 19.4572 22.621 20.7596 21.3186C21.7878 20.2903 22.4733 18.7823 22.7475 16.7258H13.9048Z" fill="#4285F4"/>
<path d="M45.5738 18.9881C45.5738 24.0606 41.598 27.7623 36.7311 27.7623C31.8642 27.7623 27.9569 24.0606 27.9569 18.9881C27.9569 13.9155 31.9327 10.2139 36.7311 10.2139C41.5295 10.2139 45.5738 13.9155 45.5738 18.9881ZM41.6666 18.9881C41.6666 15.8348 39.4045 13.7098 36.7311 13.7098C34.0577 13.7098 31.7956 15.8348 31.7956 18.9881C31.7956 22.1413 34.1262 24.3348 36.7311 24.3348C39.3359 24.3348 41.6666 22.1413 41.6666 18.9881Z" fill="#EA4335"/>
<path d="M64.7673 18.9881C64.7673 24.0606 60.7915 27.7623 55.9246 27.7623C51.0577 27.7623 47.1504 24.0606 47.1504 18.9881C47.1504 13.9155 51.1262 10.2139 55.9246 10.2139C60.723 10.2139 64.7673 13.9155 64.7673 18.9881ZM60.8601 18.9881C60.8601 15.8348 58.598 13.7098 55.9246 13.7098C53.2512 13.7098 50.9891 15.8348 50.9891 18.9881C50.9891 22.1413 53.3198 24.3348 55.9246 24.3348C58.5294 24.3348 60.8601 22.1413 60.8601 18.9881Z" fill="#FBBC04"/>
<path d="M83.1383 10.7623V26.5284C83.1383 32.9719 79.2996 35.6453 74.7754 35.6453C70.5254 35.6453 67.9891 32.7663 67.0294 30.4356L70.3883 29.0647C71.0052 30.5042 72.4447 32.2179 74.7754 32.2179C77.7229 32.2179 79.5052 30.3671 79.5052 27.0768V25.7744H79.3681C78.7848 26.4276 78.0647 26.9444 77.2591 27.288C76.4535 27.6316 75.5821 27.7935 74.7068 27.7623C70.3883 27.7623 66.3439 23.9235 66.3439 19.0566C66.3439 14.1211 70.3883 10.2139 74.7068 10.2139C76.8318 10.2139 78.477 11.1735 79.3681 12.2018H79.5052V10.7623H83.1383ZM79.7794 19.0566C79.7794 15.9719 77.7229 13.7098 75.0496 13.7098C72.4447 13.7098 70.1826 15.9719 70.1826 19.0566C70.1826 22.0727 72.4447 24.3348 75.0496 24.3348C77.7229 24.3348 79.7794 22.0727 79.7794 19.0566Z" fill="#4285F4"/>
<path d="M85.8117 1.57684H89.6504V27.2825H85.8117V1.57684Z" fill="#34A853"/>
<path d="M104.525 21.8671L107.541 23.9235C106.582 25.2945 104.251 27.7623 100.207 27.7623C95.2027 27.7623 91.5011 23.9235 91.5011 18.9881C91.5011 13.7784 95.2713 10.2139 99.7955 10.2139C104.32 10.2139 106.582 13.8469 107.267 15.8348L107.679 16.7945L95.9568 21.6614C96.8479 23.4437 98.2189 24.3348 100.207 24.3348C102.195 24.3348 103.497 23.3752 104.525 21.8671ZM95.3398 18.7139L103.154 15.4921C102.743 14.3953 101.441 13.6413 99.9326 13.6413C97.9447 13.6413 95.2027 15.355 95.3398 18.7139Z" fill="#EA4335"/>
</svg>
