<svg width="110" height="19" viewBox="0 0 110 19" fill="none" xmlns="http://www.w3.org/2000/svg">
<path d="M8.27296 5.54383H10.0191C11.1104 5.54383 12.2454 5.7621 12.2454 7.02803C12.2454 8.11934 11.5469 8.90509 9.49524 8.90509H7.57452L8.27296 5.54383ZM0.590088 17.8976H5.6538L6.70147 12.8775H10.15C14.5153 12.8775 17.3527 9.99641 17.3527 6.63515C17.3527 2.96832 15.3884 1.26587 12.3327 1.26587H4.0823L0.590088 17.8976Z" fill="#004B8D"/>
<path d="M23.595 6.98437L24.2062 11.9608H21.0195L23.595 6.98437ZM12.6382 17.8976H17.8765L19.1424 15.5403H24.5554L24.8173 17.8976H29.8374L27.3055 1.26587H22.2418L12.6382 17.8976Z" fill="#004B8D"/>
<path d="M31.9764 11.7862L28.3969 1.26587H33.5479L35.1194 7.46455L39.1791 1.26587H45.2031L37.0837 11.7425L35.8178 17.8976H30.7104L31.9764 11.7862Z" fill="#004B8D"/>
<path d="M57.4259 11.5678C57.1203 13.2702 55.8108 18.2903 48.87 18.2903C44.0245 18.2903 41.7109 15.1473 41.7109 10.6947C41.7109 5.32545 45.0722 0.829224 50.7471 0.829224C54.4575 0.829224 57.7751 2.44437 57.8624 7.42078H53.017C53.0606 5.84929 52.3185 4.97623 50.7471 4.97623C47.9096 4.97623 46.862 8.25018 46.862 10.6074C46.862 12.0043 47.2112 14.0996 49.5684 14.0996C51.1836 14.0996 52.1003 13.0083 52.4059 11.5241L57.4259 11.5678Z" fill="#004B8D"/>
<path d="M60.3944 1.26587H65.5454L64.3231 7.02803H68.9939L70.2162 1.26587H75.3672L71.875 17.8976H66.7677L68.1209 11.306H63.4501L62.0532 17.8976H56.9458L60.3944 1.26587Z" fill="#004B8D"/>
<path d="M76.7205 1.26587H90.4711L89.598 5.54383H80.9548L80.5183 7.59551H88.5504L87.721 11.5679H79.6889L79.2523 13.6196H88.0702L87.1971 17.8976H73.2283L76.7205 1.26587Z" fill="#004B8D"/>
<path d="M94.0069 9.0797L90.1654 1.26587H95.753L97.3681 5.58749L100.686 1.26587H106.753L99.8127 9.0797L103.872 17.8976H98.1102L96.2768 13.2704L92.3917 17.8976H86.1057L94.0069 9.0797Z" fill="#004B8D"/>
<path d="M107.408 2.00787C107.408 1.39673 107.845 0.916554 108.456 0.916554C109.023 0.916554 109.504 1.39673 109.504 2.00787C109.504 2.61901 109.067 3.09919 108.456 3.09919C107.889 3.09919 107.408 2.61901 107.408 2.00787ZM107.19 2.00787C107.19 2.74997 107.758 3.2738 108.456 3.2738C109.154 3.2738 109.722 2.74997 109.722 2.00787C109.722 1.30943 109.154 0.741943 108.456 0.741943C107.758 0.741943 107.19 1.30943 107.19 2.00787ZM107.976 2.74997H108.194V2.13883H108.412L108.805 2.79362H109.067L108.631 2.13883C108.849 2.13883 109.023 2.00787 109.023 1.74596C109.023 1.44039 108.849 1.30943 108.5 1.30943H107.976V2.74997ZM108.194 1.48404H108.5C108.674 1.48404 108.805 1.52769 108.805 1.7023C108.805 1.92057 108.631 1.96422 108.412 1.96422H108.194V1.48404V1.48404Z" fill="#004B8D"/>
</svg>
