<svg width="25" height="25" viewBox="0 0 25 25" fill="none" xmlns="http://www.w3.org/2000/svg">
<path d="M12.1241 8.12041C11.2481 8.12041 9.89206 7.12441 8.46406 7.16041C6.58006 7.18441 4.85206 8.25241 3.88006 9.94441C1.92406 13.3404 3.37606 18.3564 5.28406 21.1164C6.22006 22.4604 7.32406 23.9724 8.78806 23.9244C10.1921 23.8644 10.7201 23.0124 12.4241 23.0124C14.1161 23.0124 14.5961 23.9244 16.0841 23.8884C17.5961 23.8644 18.5561 22.5204 19.4801 21.1644C20.5481 19.6044 20.9921 18.0924 21.0161 18.0084C20.9801 17.9964 18.0761 16.8804 18.0401 13.5204C18.0161 10.7124 20.3321 9.36841 20.4401 9.30841C19.1201 7.37641 17.0921 7.16041 16.3841 7.11241C14.5361 6.96841 12.9881 8.12041 12.1241 8.12041ZM15.2441 5.28841C16.0241 4.35241 16.5401 3.04441 16.3961 1.74841C15.2801 1.79641 13.9361 2.49241 13.1321 3.42841C12.4121 4.25641 11.7881 5.58841 11.9561 6.86041C13.1921 6.95641 14.4641 6.22441 15.2441 5.28841Z" fill="black"/>
</svg>
