<svg width="122" height="41" viewBox="0 0 122 41" fill="none" xmlns="http://www.w3.org/2000/svg">
<path d="M107.296 31.9182C107.296 31.6155 107.044 31.4641 106.742 31.4641H106.237V32.9777H106.489V32.3723H106.691L107.044 32.9777H107.347L106.943 32.3218C107.145 32.2714 107.296 32.12 107.296 31.9182ZM106.439 32.12V31.7164H106.691C106.842 31.7164 106.994 31.7669 106.994 31.9182C106.994 32.12 106.792 32.12 106.641 32.12H106.439ZM106.691 30.9092C105.934 30.9092 105.329 31.5146 105.329 32.2714C105.329 33.0281 105.934 33.5831 106.691 33.5831C107.448 33.5831 108.053 32.9777 108.053 32.2714C108.053 31.5146 107.448 30.9092 106.691 30.9092ZM106.691 33.3813C106.086 33.3813 105.581 32.8768 105.581 32.2714C105.581 31.666 106.086 31.1614 106.691 31.1614C107.296 31.1614 107.801 31.666 107.801 32.2714C107.851 32.8768 107.347 33.3813 106.691 33.3813Z" fill="#0077C5"/>
<path d="M15.2728 15.2188H19.8134V33.3814H15.2728V15.2188ZM34.4444 14.6638C31.7704 14.6638 29.601 16.2783 28.7938 18.0945H28.6929V15.1684H24.4045V33.3309H28.9452V23.392C28.9452 20.9703 30.3073 18.4477 33.1831 18.4477C36.1093 18.4477 36.6138 21.1216 36.6138 23.2911V33.3814H41.1544V22.0298C41.1544 18.3468 39.1868 14.6638 34.4444 14.6638ZM73.5444 25.2082C73.5444 27.6299 72.1822 30.1525 69.3064 30.1525C66.3803 30.1525 65.8757 27.4785 65.8757 25.3091V15.2188H61.3351V26.5704C61.3351 30.2534 63.3027 33.8859 68.0452 33.8859C70.7191 33.8859 72.8885 32.2715 73.6957 30.4552H73.7966V33.3814H78.085V15.2188H73.5444C73.5444 15.2188 73.5444 25.2082 73.5444 25.2082ZM82.7266 33.3814H87.2672V15.2188H82.7266V33.3814ZM43.4752 19.2045H48.5708V33.3814H53.1115V19.2045H58.2071V15.1684H43.4752V19.2045ZM50.8412 12.8476C52.3547 12.8476 53.5655 11.6367 53.5655 10.1232C53.5655 8.60964 52.3547 7.3988 50.8412 7.3988C49.3276 7.3988 48.1168 8.60964 48.1168 10.1232C48.1168 11.6367 49.3276 12.8476 50.8412 12.8476ZM90.4457 15.2188V19.2549H95.5413V33.4318H100.082V19.2045H105.178V15.1684H90.4457V15.2188ZM97.8116 12.8476C99.3252 12.8476 100.536 11.6367 100.536 10.1232C100.536 8.60964 99.3252 7.3988 97.8116 7.3988C96.2981 7.3988 95.0872 8.60964 95.0872 10.1232C95.0872 11.5863 96.2981 12.8476 97.8116 12.8476Z" fill="#0077C5"/>
</svg>
