<svg width="191" height="29" viewBox="0 0 191 29" fill="none" xmlns="http://www.w3.org/2000/svg">
<path fill-rule="evenodd" clip-rule="evenodd" d="M47.1232 8.64353C45.1903 8.6377 43.3166 9.31041 41.8288 10.5444V8.8349H36.9937V27.665H42.0202V15.6347C42.5608 14.9313 43.251 14.3569 44.0409 13.9531C44.8308 13.5493 45.7006 13.3263 46.5874 13.3C47.2732 13.2626 47.9593 13.3668 48.6031 13.6062V8.77111C48.1147 8.68378 47.6193 8.64108 47.1232 8.64353" fill="#293E40"/>
<path fill-rule="evenodd" clip-rule="evenodd" d="M3.28831 21.9242C4.71609 23.1281 6.52377 23.7879 8.39132 23.7868C9.74362 23.7868 10.7897 23.1234 10.7897 22.1921C10.828 19.36 1.74465 20.4061 1.74465 14.308C1.74465 10.6976 5.22746 8.45228 8.9399 8.45228C11.2061 8.44973 13.4235 9.11052 15.3187 10.3531L12.9202 14.0273C11.8794 13.2448 10.6239 12.7996 9.32262 12.7516C7.93205 12.7516 6.77112 13.3001 6.77112 14.2697C6.77112 16.7192 15.8545 15.7496 15.8545 22.2687C15.8545 25.8408 12.3334 28.0606 8.39132 28.0606C5.67328 28.0185 3.03666 27.1262 0.851624 25.5091L3.28831 21.9242Z" fill="#293E40"/>
<path fill-rule="evenodd" clip-rule="evenodd" d="M34.8504 18.0714C34.8504 12.8281 31.1763 8.45227 25.9839 8.45227C20.4217 8.45227 16.8623 13.0322 16.8623 18.2628C16.8041 19.5671 17.0185 20.8693 17.4919 22.0861C17.9653 23.3029 18.6873 24.4075 19.6117 25.3295C20.5362 26.2516 21.6427 26.9707 22.8607 27.4409C24.0787 27.9112 25.3814 28.1222 26.6856 28.0606C28.127 28.0716 29.5543 27.7771 30.8737 27.1966C32.193 26.6161 33.3744 25.7627 34.3401 24.6926L31.4697 21.7966C30.8699 22.4589 30.1428 22.9934 29.3317 23.3682C28.5207 23.743 27.6424 23.9505 26.7494 23.9782C25.4887 24.0293 24.2565 23.5947 23.307 22.7638C22.3574 21.933 21.763 20.7694 21.6464 19.513H34.7228C34.8067 19.0371 34.8494 18.5548 34.8504 18.0714ZM21.9653 15.8261C22.1463 14.894 22.6466 14.054 23.3801 13.451C24.1136 12.8479 25.0344 12.5193 25.9839 12.5219C26.9002 12.522 27.7844 12.8585 28.4688 13.4677C29.1532 14.0768 29.5901 14.9161 29.6964 15.8261H21.9653Z" fill="#293E40"/>
<path fill-rule="evenodd" clip-rule="evenodd" d="M60.5823 20.3295L65.7236 8.83496H70.9542L62.3173 27.6651H58.8473L50.2232 8.83496H55.441L60.5823 20.3295Z" fill="#293E40"/>
<path fill-rule="evenodd" clip-rule="evenodd" d="M75.1642 -0.00606627C75.8003 0.00399191 76.4192 0.201805 76.9433 0.562524C77.4673 0.923242 77.873 1.43078 78.1095 2.02137C78.346 2.61196 78.4027 3.25927 78.2724 3.88197C78.1422 4.50468 77.8308 5.07501 77.3775 5.52131C76.9241 5.96762 76.349 6.26999 75.7243 6.39045C75.0996 6.51091 74.4533 6.44408 73.8665 6.19836C73.2797 5.95264 72.7786 5.53898 72.4261 5.00936C72.0737 4.47974 71.8856 3.85777 71.8855 3.22159C71.8854 2.7934 71.9706 2.36948 72.136 1.97452C72.3014 1.57956 72.5437 1.22145 72.8488 0.921059C73.154 0.620667 73.5158 0.383993 73.9133 0.224822C74.3108 0.0656503 74.736 -0.0128361 75.1642 -0.00606627" fill="#293E40"/>
<path d="M77.6775 8.83496H72.651V27.6651H77.6775V8.83496Z" fill="#293E40"/>
<path fill-rule="evenodd" clip-rule="evenodd" d="M98.4722 23.8251C97.5206 25.1857 96.2432 26.2862 94.7568 27.0261C93.2703 27.766 91.6222 28.1216 89.9629 28.0606C87.3644 28.0606 84.8723 27.0283 83.0349 25.1909C81.1974 23.3534 80.1652 20.8613 80.1652 18.2628C80.1652 15.6643 81.1974 13.1722 83.0349 11.3347C84.8723 9.49729 87.3644 8.46503 89.9629 8.46503C91.4837 8.45975 92.9856 8.80178 94.3542 9.46505C95.7227 10.1283 96.9218 11.0953 97.8599 12.2923L94.3388 15.3031C93.8404 14.617 93.1888 14.0568 92.4357 13.667C91.6827 13.2772 90.8491 13.0686 90.0012 13.0577C89.3257 13.0577 88.6569 13.1918 88.0335 13.4522C87.4102 13.7126 86.8448 14.0942 86.3701 14.5749C85.8954 15.0555 85.5209 15.6256 85.2682 16.2521C85.0155 16.8786 84.8898 17.5491 84.8982 18.2245C84.8782 18.9066 84.9992 19.5855 85.2534 20.2187C85.5076 20.852 85.8897 21.426 86.3758 21.9049C86.8619 22.3838 87.4415 22.7573 88.0785 23.0021C88.7155 23.2469 89.3961 23.3577 90.0778 23.3276C90.9724 23.3106 91.8493 23.075 92.632 22.6414C93.4148 22.2078 94.0796 21.5893 94.5684 20.8398L98.4722 23.8251Z" fill="#293E40"/>
<path fill-rule="evenodd" clip-rule="evenodd" d="M116.728 24.6798C115.763 25.7499 114.581 26.6033 113.262 27.1838C111.942 27.7643 110.515 28.0588 109.074 28.0478C107.771 28.1074 106.47 27.8953 105.254 27.4251C104.038 26.9549 102.933 26.2369 102.009 25.3167C101.085 24.3965 100.363 23.2942 99.8881 22.0798C99.4132 20.8655 99.196 19.5656 99.2504 18.2628C99.2504 13.0322 102.81 8.45227 108.385 8.45227C113.564 8.45227 117.239 12.8281 117.239 18.0714C117.241 18.5544 117.203 19.0367 117.124 19.513H104.086C104.202 20.7694 104.797 21.933 105.746 22.7638C106.696 23.5947 107.928 24.0293 109.189 23.9782C110.082 23.9505 110.96 23.743 111.771 23.3682C112.582 22.9934 113.309 22.4589 113.909 21.7966L116.728 24.6798ZM112.059 15.8261C111.935 14.9237 111.493 14.0951 110.812 13.4895C110.132 12.8838 109.257 12.5407 108.347 12.5219C107.395 12.5164 106.471 12.8435 105.735 13.4469C104.999 14.0502 104.497 14.8918 104.315 15.8261H112.059Z" fill="#293E40"/>
<path fill-rule="evenodd" clip-rule="evenodd" d="M119.19 27.665V8.83486H124.026V10.353C125.516 9.11524 127.395 8.44222 129.333 8.45213C130.571 8.44857 131.794 8.71762 132.917 9.24016C134.039 9.76271 135.032 10.5259 135.826 11.4757C137.102 12.9555 137.765 14.8564 137.765 18.0713V27.665H132.726V17.6886C132.796 17.0548 132.733 16.4135 132.542 15.8052C132.351 15.1969 132.036 14.6349 131.616 14.1548C130.848 13.4452 129.829 13.0691 128.784 13.1086C127.9 13.1343 127.033 13.3559 126.246 13.7575C125.458 14.159 124.77 14.7304 124.23 15.4305V27.665H119.19Z" fill="#293E40"/>
<path fill-rule="evenodd" clip-rule="evenodd" d="M150.702 8.45228C148.497 8.4497 146.342 9.10913 144.516 10.3452C142.691 11.5812 141.278 13.3369 140.462 15.3849C139.645 17.4329 139.462 19.6789 139.937 21.832C140.412 23.9851 141.522 25.946 143.124 27.461C143.5 27.8199 143.992 28.0326 144.511 28.0606C145.031 28.0887 145.543 27.9303 145.956 27.6141C147.31 26.6045 148.955 26.0592 150.644 26.0592C152.334 26.0592 153.978 26.6045 155.333 27.6141C155.749 27.9296 156.264 28.0862 156.786 28.0558C157.307 28.0254 157.801 27.81 158.177 27.4482C159.769 25.9385 160.873 23.9879 161.348 21.8465C161.823 19.7052 161.648 17.4707 160.844 15.4296C160.041 13.3886 158.646 11.634 156.839 10.3908C155.032 9.14767 152.895 8.47263 150.702 8.45228V8.45228ZM150.702 24.9478C149.978 24.9671 149.257 24.8387 148.585 24.5705C147.912 24.3023 147.301 23.8999 146.789 23.3878C146.276 22.8756 145.874 22.2646 145.606 21.5918C145.338 20.9191 145.209 20.1988 145.229 19.4748C145.193 18.733 145.308 17.9916 145.567 17.2957C145.826 16.5997 146.224 15.9636 146.737 15.426C147.249 14.8883 147.865 14.4603 148.548 14.1678C149.23 13.8754 149.965 13.7246 150.708 13.7246C151.451 13.7246 152.186 13.8754 152.868 14.1678C153.551 14.4603 154.167 14.8883 154.679 15.426C155.192 15.9636 155.59 16.5997 155.849 17.2957C156.108 17.9916 156.223 18.733 156.187 19.4748C156.207 20.1999 156.078 20.9213 155.809 21.5949C155.54 22.2685 155.136 22.8802 154.623 23.3925C154.109 23.9048 153.497 24.307 152.823 24.5744C152.148 24.8418 151.427 24.9688 150.702 24.9478" fill="#81B5A1"/>
<path fill-rule="evenodd" clip-rule="evenodd" d="M171.56 27.6651H167.809L160.346 8.83496H165.36L169.455 19.6023L173.474 8.83496H177.671L181.651 19.6023L185.772 8.83496H190.798L183.323 27.6651H179.585L175.566 16.9487L171.56 27.6651Z" fill="#293E40"/>
<path d="M188.043 25.2793V25.6875H187.405V27.665H186.946V25.6875H186.308V25.2793H188.043Z" fill="#293E40"/>
<path d="M189.599 26.7081L190.467 25.2793H190.798V27.665H190.339V26.3254L189.765 27.2695H189.433L188.872 26.3254V27.665H188.4V25.2793H188.732L189.599 26.7081Z" fill="#293E40"/>
</svg>
