<svg width="141" height="71" viewBox="0 0 141 71" fill="none" xmlns="http://www.w3.org/2000/svg">
<path d="M3.30578 3.54285L30.2659 0.676308C33.5766 0.266318 34.4284 0.540941 36.5093 2.72343L45.1152 11.4567C46.5352 12.9585 47.0085 13.3674 47.0085 15.0045V62.9035C47.0085 65.9054 46.2511 67.6808 43.6031 67.9524L12.2945 70.6822C10.3067 70.8189 9.36069 70.41 8.3197 68.4982L1.98212 56.6261C0.846499 54.4408 0.374268 52.806 0.374268 50.893V8.31725C0.374268 5.86237 1.13186 3.81468 3.30578 3.54285Z" fill="white"/>
<path fill-rule="evenodd" clip-rule="evenodd" d="M25.6389 16.0913L2.51423 17.7249C0.649571 17.8798 -0.000244141 19.0468 -0.000244141 20.4458V44.7089C-0.000244141 45.7991 0.404806 46.7307 1.37887 47.9761L6.81486 54.7418C7.70776 55.8313 8.51922 56.0643 10.2242 55.9864L37.0788 54.4307C39.3501 54.276 39.9998 53.2642 39.9998 51.5535V24.2567C39.9998 23.3724 39.635 23.117 38.5598 22.3639C38.5005 22.3225 38.4393 22.2795 38.3758 22.2349L30.9941 17.258C29.2093 16.0142 28.4787 15.8577 25.6389 16.0913ZM10.8324 23.809C8.64003 23.951 8.14187 23.9833 6.89685 23.013L3.73079 20.6023C3.40788 20.2905 3.56983 19.9017 4.38054 19.8245L26.6109 18.269C28.4764 18.1132 29.4498 18.7363 30.1804 19.2804L33.9932 21.9248C34.1556 22.0022 34.5605 22.4682 34.0735 22.4682L11.1155 23.7907C11.0197 23.7969 10.927 23.8029 10.8371 23.8087L10.834 23.8089L10.8324 23.809ZM8.27521 51.3198V28.1458C8.27521 27.1351 8.59974 26.6681 9.57277 26.5896L35.9393 25.1126C36.8337 25.0349 37.2387 25.5795 37.2387 26.5896V49.6081C37.2387 50.6198 37.0759 51.4765 35.615 51.5535L10.3841 52.9541C8.92396 53.0311 8.27521 52.5653 8.27521 51.3198ZM33.1832 29.3889C33.345 30.0895 33.1832 30.7895 32.4516 30.8682L31.2358 31.1006V48.209C30.1804 48.7533 29.207 49.0645 28.3959 49.0645C27.0974 49.0645 26.7722 48.6753 25.7995 47.5095L17.8476 35.5334V47.1206L20.3639 47.6654C20.3639 47.6654 20.3639 49.0645 18.3338 49.0645L12.7372 49.3759C12.5746 49.0645 12.7372 48.2874 13.3048 48.1317L14.7654 47.7434V32.4231L12.7375 32.2672C12.5749 31.5666 12.9799 30.5565 14.1165 30.4781L20.1205 30.0898L28.3959 42.2217V31.4894L26.2861 31.257C26.1241 30.4006 26.7722 29.7787 27.5836 29.7016L33.1832 29.3889Z" fill="#000008"/>
<path d="M95.952 46.697H92.5239V31.6168H95.952V46.697Z" fill="#000008"/>
<path d="M96.2851 27.0678C96.2851 28.212 95.3691 29.1218 94.231 29.1218C93.1068 29.1218 92.1769 28.212 92.1769 27.0678C92.1769 25.9237 93.1068 25.0001 94.231 25.0001C95.3691 25.0001 96.2851 25.9237 96.2851 27.0678Z" fill="#000008"/>
<path d="M50.4556 33.1603V46.6968H46.9998V26.8057H50.1087L59.9349 40.3283H60.1709V26.8057H63.6128V46.6968H60.5178L50.6916 33.1603H50.4556Z" fill="#000008"/>
<path fill-rule="evenodd" clip-rule="evenodd" d="M80.6373 39.1568C80.6373 44.0502 77.8754 47.0001 73.337 47.0001C68.7847 47.0001 66.0367 44.0502 66.0367 39.1568C66.0367 34.2908 68.8264 31.3132 73.337 31.3132C77.8615 31.3132 80.6373 34.277 80.6373 39.1568ZM69.5619 39.1568C69.5619 42.3133 70.9358 44.1329 73.337 44.1329C75.738 44.1329 77.0982 42.3133 77.0982 39.1568C77.0982 36.0138 75.7241 34.1805 73.337 34.1805C70.9358 34.1805 69.5619 36.0138 69.5619 39.1568Z" fill="#000008"/>
<path d="M83.7816 27.9219V31.7127H81.3806V34.442H83.7816V42.6714C83.7816 45.5938 85.1694 46.7654 88.6532 46.7654C89.3193 46.7654 89.9577 46.6964 90.4574 46.5999V43.9257L90.4237 43.9291C90.0264 43.9686 89.764 43.9947 89.2916 43.9947C87.8482 43.9947 87.2097 43.333 87.2097 41.8444V34.442H90.4574V31.7127H87.2097V27.9219H83.7816Z" fill="#000008"/>
<path fill-rule="evenodd" clip-rule="evenodd" d="M105.354 47.0001C109.892 47.0001 112.654 44.0502 112.654 39.1568C112.654 34.277 109.879 31.3132 105.354 31.3132C100.843 31.3132 98.0537 34.2908 98.0537 39.1568C98.0537 44.0502 100.802 47.0001 105.354 47.0001ZM105.354 44.1329C102.953 44.1329 101.579 42.3133 101.579 39.1568C101.579 36.0138 102.953 34.1805 105.354 34.1805C107.741 34.1805 109.115 36.0138 109.115 39.1568C109.115 42.3133 107.755 44.1329 105.354 44.1329Z" fill="#000008"/>
<path d="M118.145 46.6968H114.703V31.6166H118.02V34.0288H118.256C118.978 32.3471 120.505 31.3132 122.767 31.3132C126.154 31.3132 128 33.3396 128 36.9374V46.6968H124.558V37.7507C124.558 35.4487 123.586 34.2908 121.49 34.2908C119.436 34.2908 118.145 35.6967 118.145 37.9161V46.6968Z" fill="#000008"/>
</svg>
