<svg width="141" height="71" viewBox="0 0 141 71" fill="none" xmlns="http://www.w3.org/2000/svg">
<rect width="140.387" height="70.1936" transform="translate(0 0.0323486)" fill="white"/>
<path d="M64.5753 16.848C66.7351 14.6111 69.7434 13.1969 73.0603 13.1969C77.4827 13.1969 81.3138 15.6652 83.3708 19.3163C85.1449 18.5193 87.1247 18.0822 89.2074 18.0822C97.1781 18.0822 103.606 24.5873 103.606 32.6094C103.606 40.6315 97.1523 47.1367 89.2074 47.1367C88.2303 47.1367 87.279 47.0338 86.379 46.8538C84.5792 50.0678 81.1338 52.2533 77.1742 52.2533C75.5286 52.2533 73.9602 51.8676 72.5717 51.1991C70.7462 55.493 66.478 58.527 61.5156 58.527C56.3475 58.527 51.9251 55.2616 50.2281 50.6592C49.4824 50.8135 48.7111 50.8906 47.9397 50.8906C41.7689 50.8906 36.7807 45.8511 36.7807 39.6031C36.7807 35.4377 39.0177 31.7866 42.3602 29.8325C41.666 28.2641 41.2803 26.5157 41.2803 24.6644C41.2546 17.5422 47.0912 11.7313 54.2391 11.7313C58.4559 11.7313 62.2098 13.7369 64.5753 16.848Z" fill="#00A1E0"/>
<path d="M46.4486 36.0033L46.7314 35.2577C46.7829 35.1291 46.86 35.1805 46.9114 35.2062C46.9886 35.2577 47.04 35.2834 47.1428 35.3605C47.9399 35.8748 48.6855 35.8748 48.917 35.8748C49.5083 35.8748 49.894 35.5662 49.894 35.1291V35.1034C49.894 34.6406 49.3283 34.4606 48.6598 34.2549L48.5056 34.2035C47.6056 33.9464 46.6286 33.5607 46.6286 32.4293V32.4036C46.6286 31.3237 47.5028 30.5524 48.7627 30.5524H48.8912C49.6369 30.5524 50.3311 30.7581 50.8453 31.0923C50.8968 31.118 50.9482 31.1695 50.9225 31.2466C50.8968 31.3237 50.6654 31.9151 50.6396 31.9922C50.5882 32.1208 50.4597 32.0437 50.4597 32.0437C49.9969 31.7866 49.3026 31.6066 48.7113 31.6066C48.1713 31.6066 47.8371 31.8894 47.8371 32.2751V32.3008C47.8371 32.7379 48.4284 32.9436 49.0969 33.1493L49.2255 33.175C50.1254 33.4578 51.0768 33.8435 51.0768 34.9491V34.9748C51.0768 36.1576 50.2283 36.8775 48.8655 36.8775C48.197 36.8775 47.5542 36.7747 46.86 36.4147C46.7314 36.3376 46.6029 36.2861 46.4743 36.1833C46.4486 36.1319 46.3972 36.1062 46.4486 36.0033ZM66.5039 36.0033L66.7867 35.2577C66.8381 35.1291 66.941 35.1805 66.9667 35.2062C67.0438 35.2577 67.0953 35.2834 67.1981 35.3605C67.9952 35.8748 68.7408 35.8748 68.9722 35.8748C69.5636 35.8748 69.9493 35.5662 69.9493 35.1291V35.1034C69.9493 34.6406 69.3836 34.4606 68.7151 34.2549L68.5608 34.2035C67.6609 33.9464 66.6839 33.5607 66.6839 32.4293V32.4036C66.6839 31.3237 67.5581 30.5524 68.818 30.5524H68.9465C69.6922 30.5524 70.3864 30.7581 70.9006 31.0923C70.952 31.118 71.0035 31.1695 70.9778 31.2466C70.952 31.3237 70.7206 31.9151 70.6949 31.9922C70.6435 32.1208 70.5149 32.0437 70.5149 32.0437C70.0521 31.7866 69.3579 31.6066 68.7665 31.6066C68.2266 31.6066 67.8923 31.8894 67.8923 32.2751V32.3008C67.8923 32.7379 68.4837 32.9436 69.1522 33.1493L69.2808 33.175C70.1807 33.4578 71.132 33.8435 71.132 34.9491V34.9748C71.132 36.1576 70.2835 36.8775 68.9208 36.8775C68.2523 36.8775 67.6095 36.7747 66.9153 36.4147C66.7867 36.3376 66.6582 36.2861 66.5296 36.1833C66.5296 36.1319 66.4782 36.1062 66.5039 36.0033ZM81.3654 32.4808C81.4682 32.8665 81.5454 33.2778 81.5454 33.7149C81.5454 34.1521 81.4939 34.5634 81.3654 34.9491C81.2625 35.3348 81.0825 35.6691 80.8511 35.9519C80.6197 36.2347 80.3112 36.4661 79.9769 36.6204C79.617 36.7747 79.2056 36.8518 78.7428 36.8518C78.2799 36.8518 77.8685 36.7747 77.5086 36.6204C77.1486 36.4661 76.8658 36.2347 76.6344 35.9519C76.403 35.6691 76.223 35.3348 76.1201 34.9491C76.0173 34.5634 75.9402 34.1521 75.9402 33.7149C75.9402 33.2778 75.9916 32.8665 76.1201 32.4808C76.223 32.0951 76.403 31.7608 76.6344 31.478C76.8658 31.1952 77.1743 30.9638 77.5086 30.8095C77.8685 30.6552 78.2799 30.5524 78.7428 30.5524C79.2056 30.5524 79.617 30.6295 79.9769 30.8095C80.3369 30.9638 80.6197 31.1952 80.8511 31.478C81.0825 31.7608 81.2625 32.0951 81.3654 32.4808ZM80.2083 33.6892C80.2083 33.0207 80.0798 32.5065 79.8484 32.1465C79.617 31.7866 79.2313 31.6066 78.7428 31.6066C78.2285 31.6066 77.8685 31.7866 77.6371 32.1465C77.4057 32.5065 77.2772 33.0207 77.2772 33.6892C77.2772 34.3577 77.4057 34.872 77.6371 35.2577C77.8685 35.6176 78.2285 35.7976 78.7428 35.7976C79.257 35.7976 79.617 35.6176 79.8484 35.2577C80.1055 34.8977 80.2083 34.3577 80.2083 33.6892ZM90.7759 35.6176L91.0588 36.389C91.0845 36.4918 91.0073 36.5176 91.0073 36.5176C90.5702 36.6975 89.9789 36.8004 89.3875 36.8004C88.3847 36.8004 87.6391 36.5176 87.1248 35.9519C86.6106 35.3862 86.3535 34.6149 86.3535 33.6635C86.3535 33.2264 86.4049 32.815 86.5335 32.4293C86.662 32.0437 86.842 31.7094 87.0991 31.4266C87.3562 31.1438 87.6648 30.9123 88.0248 30.7581C88.3847 30.6038 88.8218 30.501 89.3103 30.501C89.6446 30.501 89.9274 30.5267 90.1588 30.5524C90.416 30.6038 90.7759 30.6809 90.9302 30.7581C90.9559 30.7581 91.033 30.8095 91.0073 30.8866C90.9045 31.1952 90.8274 31.4009 90.7245 31.658C90.6731 31.7866 90.5959 31.7351 90.5959 31.7351C90.2103 31.6066 89.8503 31.5551 89.3875 31.5551C88.8218 31.5551 88.3847 31.7351 88.1276 32.1208C87.8448 32.4808 87.6905 32.9693 87.6905 33.6378C87.6905 34.3577 87.8705 34.872 88.179 35.2062C88.4876 35.5405 88.9247 35.6948 89.4903 35.6948C89.7217 35.6948 89.9274 35.6691 90.1074 35.6433C90.2874 35.6176 90.4674 35.5662 90.6474 35.4891C90.6217 35.5405 90.7245 35.5148 90.7759 35.6176ZM96.6125 32.2494C96.8696 33.1236 96.7411 33.8692 96.7154 33.9206C96.7154 34.0235 96.6125 34.0235 96.6125 34.0235H92.73C92.7557 34.6149 92.8843 35.0263 93.1928 35.3091C93.4757 35.5919 93.9128 35.7719 94.5299 35.7719C95.4555 35.7719 95.8412 35.5919 96.124 35.4891C96.124 35.4891 96.2268 35.4634 96.2783 35.5662L96.5354 36.2861C96.5868 36.4147 96.5354 36.4404 96.5097 36.4661C96.2783 36.5947 95.6869 36.8518 94.5556 36.8518C94.0156 36.8518 93.5271 36.7747 93.1414 36.6204C92.7557 36.4661 92.4215 36.2604 92.1644 35.9776C91.9072 35.6948 91.7273 35.3605 91.5987 35.0005C91.4701 34.6149 91.4187 34.2035 91.4187 33.7664C91.4187 33.3293 91.4701 32.9179 91.5987 32.5322C91.7016 32.1465 91.8815 31.8123 92.1129 31.5294C92.3443 31.2466 92.6529 31.0152 93.0129 30.8609C93.3728 30.6809 93.8099 30.6038 94.2985 30.6038C94.7098 30.6038 95.0955 30.6809 95.4041 30.8352C95.6355 30.9381 95.8926 31.118 96.1497 31.4009C96.2783 31.5037 96.5097 31.8894 96.6125 32.2494ZM92.7557 33.0721H95.5069C95.4812 32.7122 95.4041 32.4036 95.2498 32.1465C95.0184 31.7866 94.6841 31.5809 94.1699 31.5809C93.6557 31.5809 93.2957 31.7866 93.0643 32.1465C92.91 32.3779 92.8329 32.6865 92.7557 33.0721ZM65.5783 32.2494C65.8354 33.1236 65.7068 33.8692 65.7068 33.9206C65.7068 34.0235 65.604 34.0235 65.604 34.0235H61.7215C61.7472 34.6149 61.8757 35.0263 62.1843 35.3091C62.4671 35.5919 62.9042 35.7719 63.5213 35.7719C64.4469 35.7719 64.8326 35.5919 65.1154 35.4891C65.1154 35.4891 65.2183 35.4634 65.2697 35.5662L65.5268 36.2861C65.5783 36.4147 65.5268 36.4404 65.5011 36.4661C65.2697 36.5947 64.6783 36.8518 63.547 36.8518C63.0071 36.8518 62.5185 36.7747 62.1329 36.6204C61.7472 36.4661 61.4129 36.2604 61.1558 35.9776C60.8987 35.6948 60.7187 35.3605 60.5902 35.0005C60.4616 34.6149 60.4102 34.2035 60.4102 33.7664C60.4102 33.3293 60.4616 32.9179 60.5902 32.5322C60.693 32.1465 60.873 31.8123 61.1044 31.5294C61.3358 31.2466 61.6443 31.0152 62.0043 30.8609C62.3643 30.6809 62.8014 30.6038 63.2899 30.6038C63.7013 30.6038 64.087 30.6809 64.3955 30.8352C64.6269 30.9381 64.884 31.118 65.1412 31.4009C65.244 31.5037 65.5011 31.8894 65.5783 32.2494ZM61.7215 33.0721H64.4984C64.4727 32.7122 64.3955 32.4036 64.2412 32.1465C64.0098 31.7866 63.6756 31.5809 63.1613 31.5809C62.6471 31.5809 62.2871 31.7866 62.0557 32.1465C61.8757 32.3779 61.7986 32.6865 61.7215 33.0721ZM54.9078 32.8665C54.9078 32.8665 55.2164 32.8922 55.5506 32.9436V32.7893C55.5506 32.2751 55.4478 32.018 55.2421 31.8637C55.0364 31.7094 54.7021 31.6066 54.2907 31.6066C54.2907 31.6066 53.3394 31.6066 52.5938 31.9922C52.568 32.018 52.5423 32.018 52.5423 32.018C52.5423 32.018 52.4395 32.0437 52.4138 31.9665L52.1309 31.2209C52.0795 31.118 52.1567 31.0666 52.1567 31.0666C52.5166 30.7838 53.3394 30.6295 53.3394 30.6295C53.6222 30.5781 54.085 30.5267 54.3679 30.5267C55.1392 30.5267 55.7306 30.7066 56.142 31.0666C56.5534 31.4266 56.7591 31.9922 56.7591 32.7893V36.3376C56.7591 36.3376 56.7591 36.4404 56.6819 36.4661C56.6819 36.4661 56.5277 36.5176 56.3991 36.5433C56.2706 36.569 55.8077 36.6718 55.4221 36.7232C55.0364 36.8004 54.6507 36.8261 54.2393 36.8261C53.8536 36.8261 53.5194 36.8004 53.2108 36.7232C52.9023 36.6461 52.6452 36.5433 52.4138 36.389C52.2081 36.2347 52.0281 36.029 51.8995 35.7719C51.771 35.5405 51.7195 35.232 51.7195 34.8977C51.7195 34.5634 51.7967 34.2549 51.9252 33.9978C52.0538 33.7407 52.2595 33.535 52.4909 33.355C52.7223 33.175 53.0051 33.0721 53.288 32.9693C53.5965 32.8922 53.9051 32.8407 54.2393 32.8407C54.5479 32.8665 54.7536 32.8665 54.9078 32.8665ZM53.3651 35.5919C53.3651 35.5919 53.7251 35.8748 54.4964 35.8233C55.0621 35.7976 55.5506 35.6948 55.5506 35.6948V33.9206C55.5506 33.9206 55.0621 33.8435 54.4964 33.8435C53.6994 33.8435 53.3651 34.1263 53.3651 34.1263C53.1337 34.2806 53.0309 34.5377 53.0309 34.872C53.0309 35.0777 53.0823 35.2577 53.1594 35.3862C53.1851 35.4376 53.2108 35.4891 53.3651 35.5919ZM86.1478 30.8866C86.1221 30.9895 85.9164 31.5294 85.865 31.7094C85.8392 31.7866 85.7878 31.8123 85.7107 31.8123C85.7107 31.8123 85.4793 31.7608 85.2736 31.7608C85.145 31.7608 84.9393 31.7866 84.7593 31.838C84.5794 31.8894 84.4251 31.9922 84.2708 32.1208C84.1165 32.2494 84.0137 32.4551 83.9366 32.6865C83.8594 32.9179 83.808 33.3036 83.808 33.7149V36.5947C83.808 36.6718 83.7566 36.7232 83.6794 36.7232H82.651C82.5738 36.7232 82.5224 36.6718 82.5224 36.5947V30.8095C82.5224 30.7324 82.5738 30.6809 82.6253 30.6809H83.628C83.7052 30.6809 83.7309 30.7324 83.7309 30.8095V31.2723C83.8851 31.0666 84.1423 30.8866 84.3737 30.7838C84.6051 30.6809 84.8879 30.6038 85.3764 30.6295C85.6335 30.6552 85.9678 30.7066 86.0192 30.7324C86.1221 30.7581 86.1735 30.7838 86.1478 30.8866ZM76.6087 28.2126C76.6344 28.2126 76.7115 28.264 76.6858 28.3411L76.3773 29.1639C76.3515 29.2154 76.3258 29.2668 76.1973 29.2154C76.1716 29.2154 76.1201 29.1896 75.9916 29.1639C75.9144 29.1382 75.7859 29.1382 75.683 29.1382C75.5288 29.1382 75.4002 29.1639 75.2716 29.1896C75.1431 29.2154 75.0402 29.2925 74.9374 29.3953C74.8171 29.5127 74.7211 29.6524 74.6546 29.8067C74.5003 30.2181 74.4489 30.6552 74.4489 30.6809H75.683C75.7859 30.6809 75.8116 30.7324 75.8116 30.8095L75.6573 31.6066C75.6316 31.7351 75.5288 31.7094 75.5288 31.7094H74.2432L73.4204 36.6718C73.3175 37.1861 73.2147 37.6232 73.0861 37.9831C72.9576 38.3431 72.8033 38.6002 72.5719 38.8573C72.3662 39.0887 72.1348 39.2687 71.852 39.3459C71.5948 39.4487 71.2606 39.5001 70.9006 39.5001C70.7206 39.5001 70.5407 39.5001 70.335 39.4487C70.1807 39.423 70.1036 39.3973 69.975 39.3459C69.9236 39.3202 69.8979 39.2687 69.9236 39.1916C69.9493 39.1145 70.1807 38.4974 70.2064 38.3945C70.2578 38.2917 70.335 38.3431 70.335 38.3431C70.4121 38.3688 70.4635 38.3945 70.5407 38.4202C70.6435 38.4459 70.7464 38.4459 70.8492 38.4459C71.0292 38.4459 71.1835 38.4202 71.312 38.3688C71.4663 38.3174 71.5691 38.2145 71.672 38.086C71.7748 37.9574 71.852 37.7774 71.9548 37.546C72.0319 37.3146 72.1091 36.9804 72.1862 36.5947L73.0604 31.7351H72.2119C72.1091 31.7351 72.0834 31.6837 72.0834 31.6066L72.2376 30.8095C72.2634 30.6809 72.3662 30.7066 72.3662 30.7066H73.2404L73.2918 30.4495C73.4204 29.6782 73.6775 29.0868 74.0632 28.7011C74.4489 28.3154 75.0145 28.1097 75.7087 28.1097C75.9144 28.1097 76.0944 28.1355 76.2487 28.1612C76.3515 28.1355 76.4801 28.1612 76.6087 28.2126ZM59.2788 36.569C59.2788 36.6461 59.2274 36.6975 59.176 36.6975H58.1475C58.0704 36.6975 58.0447 36.6461 58.0447 36.569V28.3154C58.0447 28.264 58.0961 28.1869 58.1475 28.1869H59.176C59.2531 28.1869 59.2788 28.2383 59.2788 28.3154V36.569Z" fill="white"/>
</svg>
