<svg width="17" height="17" viewBox="0 0 17 17" fill="none" xmlns="http://www.w3.org/2000/svg">
<path d="M8.66034 3.99177C10.1626 3.99177 11.1759 4.64066 11.7537 5.18288L14.0114 2.97844C12.6248 1.68955 10.8203 0.898438 8.66034 0.898438C5.53145 0.898438 2.82923 2.69399 1.51367 5.30733L4.10034 7.31622C4.74923 5.38733 6.54478 3.99177 8.66034 3.99177Z" fill="#EA4335"/>
<path d="M16.3402 9.07623C16.3402 8.41845 16.2868 7.93845 16.1713 7.44067H8.66016V10.4096H13.069C12.9802 11.1473 12.5002 12.2585 11.4335 13.0051L13.9579 14.9607C15.469 13.5651 16.3402 11.5118 16.3402 9.07623Z" fill="#4285F4"/>
<path d="M4.10905 10.4807C3.94016 9.98293 3.84238 9.4496 3.84238 8.89848C3.84238 8.34737 3.94016 7.81404 4.10016 7.31626L1.51349 5.30737C0.971267 6.39182 0.660156 7.6096 0.660156 8.89848C0.660156 10.1874 0.971267 11.4052 1.51349 12.4896L4.10905 10.4807Z" fill="#FBBC05"/>
<path d="M8.66024 16.8985C10.8202 16.8985 12.6336 16.1874 13.958 14.9607L11.4336 13.0052C10.758 13.4763 9.85135 13.8052 8.66024 13.8052C6.54468 13.8052 4.74913 12.4096 4.10913 10.4807L1.52246 12.4896C2.83802 15.1029 5.53135 16.8985 8.66024 16.8985Z" fill="#34A853"/>
</svg>
