<svg width="88" height="23" viewBox="0 0 88 23" fill="none" xmlns="http://www.w3.org/2000/svg">
<path d="M0.709167 1.02856H6.55056C11.5529 1.02856 14.7156 4.25585 14.7156 9.29043C14.7156 14.325 11.569 17.5523 6.55056 17.5523H0.709167V1.02856ZM6.42147 14.5348C9.56808 14.5348 11.2947 12.5177 11.2947 9.30656C11.2947 6.07927 9.56808 4.06222 6.42147 4.06222H4.13009V14.5348H6.42147Z" fill="#007EE5"/>
<path d="M23.5745 8.8225C23.1227 8.54818 22.5256 8.41909 21.8963 8.41909C20.7668 8.41909 19.847 9.01614 19.6049 10.1134V17.5685H16.2808V5.53067H19.6211V6.70863C20.1374 5.8534 21.1218 5.25635 22.3159 5.25635C22.8806 5.25635 23.397 5.3693 23.5745 5.46612V8.8225Z" fill="#007EE5"/>
<path d="M30.2389 17.8428C26.7373 17.8428 24.3329 15.2609 24.3329 11.5657C24.3329 7.85432 26.7373 5.25635 30.2389 5.25635C33.7405 5.25635 36.1287 7.83818 36.1287 11.5657C36.1287 15.2609 33.7405 17.8428 30.2389 17.8428ZM30.2389 8.09636C28.5607 8.09636 27.6571 9.54864 27.6571 11.5657C27.6571 13.5505 28.5768 15.0189 30.2389 15.0189C31.9009 15.0189 32.8207 13.5666 32.8207 11.5657C32.8207 9.54864 31.9009 8.09636 30.2389 8.09636Z" fill="#007EE5"/>
<path d="M40.9051 22.022H37.5648V5.53058H40.9051V6.53104C41.4376 5.88558 42.6317 5.2724 43.9226 5.2724C47.4242 5.2724 49.409 8.17696 49.409 11.5818C49.409 14.9704 47.4242 17.8588 43.9226 17.8588C42.6317 17.8588 41.4376 17.2456 40.9051 16.6002V22.022ZM40.9051 13.5343C41.3085 14.3734 42.196 14.9381 43.1642 14.9381C44.9715 14.9381 46.0526 13.4859 46.0526 11.5656C46.0526 9.62924 44.9715 8.17696 43.1642 8.17696C42.1637 8.17696 41.3085 8.77401 40.9051 9.58083V13.5343Z" fill="#007EE5"/>
<path d="M54.2177 17.5684H50.8452V0.0603638H54.2177V6.53108C54.7502 5.88562 55.9443 5.27244 57.2352 5.27244C60.7368 5.27244 62.7054 8.12859 62.7054 11.5818C62.7054 15.035 60.7368 17.8589 57.2352 17.8589C55.9443 17.8589 54.7502 17.2457 54.2177 16.6002V17.5684ZM54.2177 13.5343C54.5888 14.3734 55.4763 14.9382 56.4768 14.9382C58.2841 14.9382 59.3652 13.4859 59.3652 11.5657C59.3652 9.62928 58.2841 8.177 56.4768 8.177C55.5086 8.177 54.5888 8.77405 54.2177 9.58087V13.5343Z" fill="#007EE5"/>
<path d="M69.8054 17.875C66.3038 17.875 63.8995 15.2932 63.8995 11.5979C63.8995 7.88654 66.3038 5.28857 69.8054 5.28857C73.307 5.28857 75.6952 7.87041 75.6952 11.5979C75.6952 15.2932 73.2909 17.875 69.8054 17.875ZM69.8054 8.12859C68.1272 8.12859 67.2236 9.58087 67.2236 11.5979C67.2236 13.5827 68.1434 15.0511 69.8054 15.0511C71.4675 15.0511 72.3873 13.5988 72.3873 11.5979C72.3873 9.58087 71.4675 8.12859 69.8054 8.12859Z" fill="#007EE5"/>
<path d="M83.1987 11.3559L87.5878 17.5846H83.8926L81.3107 13.8087L78.6966 17.5846H75.195L79.5357 11.4366L75.4532 5.54681H79.1484L81.4721 8.96774L83.828 5.54681H87.3296L83.1987 11.3559Z" fill="#007EE5"/>
</svg>
